<svg width="31" height="32" viewBox="0 0 31 32" fill="none" xmlns="http://www.w3.org/2000/svg">
<path d="M20.4821 7.78472C17.5027 7.2095 14.4811 7.2095 11.5011 7.78472C10.1977 8.07935 8.55789 9.67407 8.23731 10.9568C7.7041 13.4387 7.7041 15.9548 8.23731 18.4367C8.55789 19.7194 10.1977 21.3142 11.5011 21.6088C11.5014 21.6088 11.5017 21.6089 11.5021 21.609C11.5601 21.6205 11.6025 21.6716 11.6025 21.7316V25.3675C11.6025 25.5492 11.821 25.6387 11.9454 25.5071L13.6471 23.7347C13.6471 23.7347 15.0031 22.322 15.2469 22.068C15.2708 22.0431 15.3037 22.0297 15.3378 22.0306C17.0558 22.0789 18.7757 21.9381 20.4821 21.6088C21.7855 21.3142 23.4259 19.7195 23.7458 18.4368C24.2797 15.9548 24.2797 13.4388 23.7458 10.9569C23.4258 9.67407 21.7861 8.07935 20.4821 7.78472ZM20.5275 18.6218C20.2668 19.1836 19.8875 19.6509 19.3403 19.9492C19.186 20.0334 19.0015 20.0606 18.8272 20.115C18.6268 20.0533 18.4359 20.0118 18.2585 19.9371C16.4208 19.1633 14.7296 18.1651 13.3899 16.6348C12.6281 15.7646 12.0317 14.7822 11.5277 13.7425C11.2887 13.2495 11.0873 12.7371 10.882 12.2281C10.6947 11.7639 10.9705 11.2844 11.2609 10.9346C11.5333 10.6064 11.8839 10.3552 12.2636 10.1701C12.56 10.0256 12.8523 10.1089 13.0688 10.3638C13.5367 10.915 13.9665 11.4943 14.3145 12.1332C14.5285 12.5262 14.4698 13.0066 14.082 13.274C13.9877 13.339 13.9018 13.4153 13.814 13.4887C13.7369 13.5531 13.6645 13.6181 13.6117 13.7052C13.5152 13.8645 13.5106 14.0526 13.5727 14.2259C14.051 15.5599 14.8572 16.5973 16.1802 17.156C16.392 17.2454 16.6046 17.3495 16.8485 17.3206C17.2569 17.2722 17.3892 16.8175 17.6754 16.5799C17.9552 16.3477 18.3127 16.3447 18.614 16.5382C18.9155 16.7318 19.2077 16.9397 19.4981 17.1497C19.7832 17.3559 20.0671 17.5576 20.3301 17.7926C20.5828 18.0185 20.6699 18.315 20.5275 18.6218ZM18.1548 14.2747C18.0407 14.2767 18.0855 14.2745 18.1289 14.2732C17.945 14.2666 17.845 14.1568 17.8253 13.9782C17.8109 13.8477 17.7995 13.7155 17.7688 13.5886C17.7084 13.3386 17.5774 13.1069 17.3703 12.9537C17.2725 12.8814 17.1616 12.8286 17.0455 12.7946C16.898 12.7514 16.7448 12.7633 16.5976 12.7267C16.4378 12.687 16.3494 12.5556 16.3744 12.4034C16.3973 12.2649 16.5301 12.1568 16.6792 12.1678C17.6111 12.2361 18.2771 12.725 18.3722 13.8385C18.3789 13.9171 18.3868 14.0001 18.3696 14.0752C18.3417 14.1974 18.2557 14.261 18.1687 14.2726C18.1758 14.2727 18.1744 14.2733 18.1548 14.2747ZM17.5753 11.728C17.2893 11.5859 16.9801 11.4975 16.6666 11.4449C16.5296 11.4219 16.3912 11.408 16.2535 11.3885C16.0867 11.365 15.9977 11.2571 16.0055 11.0903C16.0129 10.9339 16.1255 10.8215 16.2933 10.8311C16.845 10.8629 17.3778 10.9839 17.8682 11.2475C18.8655 11.7835 19.4352 12.6296 19.6015 13.7593C19.609 13.8105 19.6211 13.8612 19.6249 13.9125C19.6344 14.0394 19.6402 14.1664 19.6499 14.3336C19.6459 14.364 19.6438 14.4357 19.6263 14.5031C19.5625 14.7481 19.1966 14.7787 19.1124 14.5315C19.0874 14.4582 19.0837 14.3747 19.0835 14.2958C19.0827 13.7791 18.972 13.2629 18.7153 12.8133C18.4514 12.3514 18.0481 11.963 17.5753 11.728ZM20.6568 15.2195C20.4642 15.2218 20.3775 15.0582 20.365 14.8828C20.3402 14.5357 20.3231 14.187 20.2759 13.8427C20.0271 12.0255 18.5992 10.522 16.817 10.1994C16.5488 10.1508 16.2742 10.1381 16.0026 10.1091C15.8309 10.0908 15.606 10.0803 15.5679 9.86361C15.536 9.68195 15.6871 9.53731 15.8575 9.52803C15.9038 9.52549 15.9504 9.52763 15.997 9.52783C18.3052 9.5935 16.1378 9.5329 16.0032 9.52816C18.4041 9.59918 20.3753 11.2173 20.798 13.6269C20.8701 14.0379 20.8958 14.458 20.9279 14.8751C20.9413 15.0505 20.8434 15.2172 20.6568 15.2195Z" fill="#242424"/>
<path d="M0.991821 0.744446V31.1912H30.9918V0.744446H0.991821ZM25.4797 18.835L25.4738 18.859C24.9945 20.8252 22.834 22.935 20.85 23.3739L20.8276 23.3786C19.2234 23.6893 17.6073 23.8443 15.9919 23.8443C15.5164 23.8443 15.0409 23.8292 14.5657 23.8023L12.3746 26.1138C11.8322 26.687 10.8783 26.2968 10.8783 25.5025V23.3077C8.9683 22.7541 6.9687 20.7413 6.50929 18.8589L6.50402 18.8349C5.91157 16.0891 5.91157 13.3045 6.50402 10.5586L6.50929 10.5346C6.98918 8.56841 9.14966 6.45859 11.1331 6.01966L11.1561 6.01498C14.3646 5.39366 17.6185 5.39366 20.8276 6.01498L20.85 6.01966C22.834 6.45859 24.9945 8.56841 25.4738 10.5346L25.4797 10.5586C26.0721 13.3045 26.0721 16.0891 25.4797 18.835Z" fill="#242424"/>
</svg>
